<svg xmlns="http://www.w3.org/2000/svg" version="1.1" xmlns:xlink="http://www.w3.org/1999/xlink" xmlns:svgjs="http://svgjs.dev/svgjs" width="1000" height="999" viewBox="0 0 1000 999"><g transform="matrix(1,0,0,1,-0.215743440233382,-0.21552769679306039)"><svg viewBox="0 0 343 343" data-background-color="#ffffff" preserveAspectRatio="xMidYMid meet" height="999" width="1000" xmlns="http://www.w3.org/2000/svg" xmlns:xlink="http://www.w3.org/1999/xlink"><g id="tight-bounds" transform="matrix(1,0,0,1,0.0740000000000407,0.07400000000001228)"><svg viewBox="0 0 342.85155851775386 342.85155851775386" height="342.85155851775386" width="342.85155851775386"><g><svg></svg></g><g><svg viewBox="0 0 342.85155851775386 342.85155851775386" height="342.85155851775386" width="342.85155851775386"><g><path d="M0 171.426c0-94.676 76.75-171.426 171.426-171.426 94.676 0 171.426 76.75 171.426 171.426 0 94.676-76.75 171.426-171.426 171.426-94.676 0-171.426-76.75-171.426-171.426zM171.426 329.865c87.503 0 158.439-70.936 158.439-158.439 0-87.503-70.936-158.439-158.439-158.439-87.503 0-158.439 70.936-158.439 158.439 0 87.503 70.936 158.439 158.439 158.439z" data-fill-palette-color="tertiary" fill="#420ec0" stroke="transparent"></path><ellipse rx="164.56874808852186" ry="164.56874808852186" cx="171.42577925887693" cy="171.42577925887693" fill="#420ec0" stroke="transparent" stroke-width="0" fill-opacity="1" data-fill-palette-color="tertiary"></ellipse></g><g transform="matrix(1,0,0,1,64.84655864529837,79.09474652944263)"><svg viewBox="0 0 213.1584412271571 184.6620654588686" height="184.6620654588686" width="213.1584412271571"><g><svg viewBox="0 0 213.1584412271571 184.6620654588686" height="184.6620654588686" width="213.1584412271571"><g><svg viewBox="0 0 213.1584412271571 184.6620654588686" height="184.6620654588686" width="213.1584412271571"><g id="textblocktransform"><svg viewBox="0 0 213.1584412271571 184.6620654588686" height="184.6620654588686" width="213.1584412271571" id="textblock"><g><svg viewBox="0 0 213.1584412271571 184.6620654588686" height="184.6620654588686" width="213.1584412271571"><path d="M212.659 39.606C211.657 20.439 208.801 15.11 208.801 15.11 200.033-4.633 189.09-0.378 179.259 2.459 161.903 2.574 144.617 6.791 127.3 9.053 90.954 9.398 54.297 3.724 18.131 17.717 14.734 22.01-3.524 18.56 0.604 42.06 1.687 51.836 5.635 62.685 5.515 71.655 6.056 73.227 6.807 69.623 7.128 71.885 8.25 77.981 10.084 75.105 11.587 78.709 9.493 88.331 10.996 96.343 12.429 104.739 9.904 106.924 6.667 105.889 5.214 113.134 5.064 118.386 4.252 117.39 3.36 117.16 2.709 117.006 1.396 117.581 1.616 119.23 2.368 124.865-0.859 128.124 1.165 133.644-0.227 139.624 2.127 144.8 1.807 151.278 1.767 152.582 1.987 153.694 2.338 154 3.891 155.649 1.626 158.869 1.867 162.357 17.8 186.202 35.087 169.718 51.411 180.682 55.65 173.015 52.463 183.404 54.157 181.794 55.479 179.915 56.441 187.697 57.935 183.289 58.165 182.024 57.814 179.033 58.636 179.609 59.067 179.915 59.448 179.839 59.508 178.075 59.598 175.43 58.806 177.078 58.596 175.698 60.871 168.721 60.31 185.321 62.444 184.63 62.344 182.599 61.723 179.685 62.995 180.069 64.258 177.155 64.298 174.74 65.42 181.295 65.46 182.714 65.661 183.71 65.981 184.4 69.489 177.27 72.976 186.931 76.654 183.71 78.909 180.184 81.073 185.627 83.358 184.285 84.16 183.212 84.971 181.295 85.743 184.515 95.193 185.206 105.264 182.33 114.223 184.63 138.163 180.337 163.747 186.394 188.99 180.72 194.942 178.535 201.125 175.43 206.927 172.938 206.927 172.938 211.627 166.114 211.627 135.446S212.629 108.611 212.78 84.191C212.93 59.771 213.631 58.774 212.629 39.606Z" opacity="1" fill="#420ec0" data-fill-palette-color="tertiary"></path><g transform="matrix(1,0,0,1,30.055340213029154,20.326479041326117)"><svg width="153.0477608010988" viewBox="4.389999866485596 -31.25 36.79999923706055 34.619998931884766" height="144.00910737621638" data-palette-color="#ffffff"><path d="M4.39 0L4.39-8.79 9.4-8.79Q12.65-5.86 16.33-4.5 20.02-3.15 24.05-3.15L24.05-3.15Q25.81-3.15 27.27-3.49 28.74-3.83 29.81-4.43 30.88-5.03 31.48-5.83 32.08-6.64 32.08-7.57L32.08-7.57Q32.08-8.64 31.4-9.55 30.71-10.45 29.21-11.18 27.71-11.91 25.35-12.45 23-12.99 19.68-13.33L19.68-13.33Q15.82-13.72 13.11-14.61 10.4-15.5 8.68-16.77 6.96-18.04 6.16-19.6 5.37-21.17 5.37-22.9L5.37-22.9Q5.37-24.51 6.3-26.01 7.23-27.51 9.06-28.67 10.89-29.83 13.62-30.54 16.36-31.25 19.97-31.25L19.97-31.25Q22.07-31.25 23.82-30.92 25.56-30.59 27.04-30.03 28.52-29.47 29.76-28.7 31.01-27.93 32.1-27.05L32.1-27.05 32.1-30.4 37.6-30.4 37.6-21.61 32.1-21.61Q31.37-22.83 30.2-23.88 29.03-24.93 27.5-25.7 25.98-26.46 24.17-26.9 22.36-27.34 20.39-27.34L20.39-27.34Q18.31-27.34 16.74-26.97 15.16-26.59 14.1-25.99 13.04-25.39 12.5-24.66 11.96-23.93 11.96-23.22L11.96-23.22Q11.96-22.31 12.44-21.5 12.92-20.68 14.12-19.98 15.33-19.29 17.41-18.74 19.48-18.19 22.68-17.8L22.68-17.8Q27.17-17.24 30.2-16.38 33.23-15.53 35.06-14.32 36.89-13.11 37.67-11.51 38.45-9.91 38.45-7.91L38.45-7.91Q38.45-6.4 37.63-4.86 36.82-3.32 35.14-2.08 33.47-0.83 30.91-0.05 28.34 0.73 24.88 0.73L24.88 0.73Q22.71 0.73 20.72 0.45 18.73 0.17 16.88-0.38 15.04-0.93 13.31-1.73 11.57-2.54 9.89-3.61L9.89-3.61 9.89 0 4.39 0ZM33.57-18.97L33.57-19.9 39.36-19.9 39.36-29.15 40.38-29.15 40.38-18.97 33.57-18.97ZM13.99-23.36L13.99-23.36Q13.99-23.88 14.51-24.29 15.04-24.71 15.97-25 16.89-25.29 18.15-25.46 19.41-25.63 20.87-25.63L20.87-25.63Q23.1-25.63 24.99-24.94 26.88-24.24 28.13-23.14L28.13-23.14Q27.44-23.44 26.59-23.72 25.73-24 24.79-24.23 23.85-24.46 22.86-24.6 21.88-24.73 20.92-24.73L20.92-24.73Q18.26-24.73 16.54-24.3 14.82-23.88 13.99-23.36ZM6.08-17.04L6.08-17.04Q6.91-15.97 8.02-15.11 9.13-14.26 10.71-13.6 12.28-12.94 14.39-12.45 16.5-11.96 19.34-11.65L19.34-11.65Q22.09-11.33 24.06-10.99 26.03-10.64 27.32-10.24 28.61-9.84 29.31-9.33 30-8.81 30.25-8.13L30.25-8.13Q29.54-8.54 28.75-8.87 27.95-9.2 26.71-9.51 25.46-9.81 23.58-10.11 21.7-10.4 18.85-10.74L18.85-10.74Q15.84-11.11 13.54-11.74 11.23-12.38 9.63-13.2 8.03-14.01 7.14-15 6.25-15.99 6.08-17.04ZM5.86 1.71L11.65 1.71 11.65-0.71Q14.58 0.83 17.77 1.64 20.97 2.44 24.85 2.44L24.85 2.44Q27.81 2.44 30.57 1.81 33.33 1.17 35.47-0.1 37.62-1.37 38.92-3.3 40.21-5.22 40.21-7.81L40.21-7.81Q40.21-9.38 39.88-10.66 39.55-11.94 38.57-13.23L38.57-13.23Q39.16-12.82 39.64-12.22 40.11-11.62 40.45-10.9 40.8-10.18 40.99-9.39 41.19-8.59 41.19-7.81L41.19-7.81Q41.19-5.13 39.9-3.05 38.62-0.98 36.4 0.45 34.18 1.88 31.2 2.62 28.22 3.37 24.83 3.37L24.83 3.37Q21.02 3.37 18.03 2.71 15.04 2.05 12.67 0.88L12.67 0.88 12.67 2.64 5.86 2.64 5.86 1.71Z" opacity="1" transform="matrix(1,0,0,1,0,0)" fill="#ffffff" class="wordmark-text-0" data-fill-palette-color="quaternary" id="text-0"></path></svg></g></svg></g></svg></g></svg></g><g></g></svg></g></svg></g></svg></g><defs></defs></svg><rect width="342.85155851775386" height="342.85155851775386" fill="none" stroke="none" visibility="hidden"></rect></g></svg></g></svg>