<svg xmlns="http://www.w3.org/2000/svg" version="1.1" width="600px" height="600px" viewBox="0 0 200 200" style="overflow:hidden!important;"><g id="svga-group-wrapper"><g id="svga-group-backs-single"><path id="SvgjsPath5317" d="M0 0h200v200H0V0z" fill="#ecf0f1" stroke-width="none" opacity="1"></path></g><g id="svga-group-humanwrap-move" transform="matrix(1,0,0,1,0,0)"><g id="svga-group-humanwrap"><g id="svga-group-hair-back-move" transform="matrix(1,0,0,1,0,0)"><g id="svga-group-hair-back"><path id="SvgjsPath5631" d="M120 28.1s3.7-7.1-5.6-12.8-20.7-6.6-25.1-3.7c0 0-22.9-7.6-40 21.2 0 0-7.1 3.2-11 17.3s8 38.3 8 38.3 11.2 25.9 4.2 38.8-12.9 19.5-12.5 28.6c.5 9 4.6 14.9 13.9 21.7s10.5 19.8 10.5 19.8 11.2-3.2 12.7-8.8c1.5-5.6-1-18.3.5-24.2 1.5-5.9 4.6-12.2 6.8-19.8C84.7 137.1 120 28.1 120 28.1z" fill="#2a232b" stroke-width="none" opacity="1" stroke="none"></path><path id="SvgjsPath5632" d="M120.4 22.5c-.5-1.6-1.4-3-2.5-4.2-2.2-2.5-4.8-4.5-7.7-5.9-1.5-.7-3-1.3-4.6-1.7-1.6-.4-3.2-.7-4.8-.8-3.2-.3-6.5.2-9.5 1.3 3.2-.5 6.3-.6 9.4-.1 3.1.4 6.1 1.3 8.8 2.7 1.4.7 2.7 1.4 4 2.4 1.3.9 2.4 1.9 3.6 3 1.1 1.1 2 2.3 2.7 3.7.7 1.4.9 3 .5 4.5.7-1.6.6-3.4.1-4.9zM89.9 11.6c-4.1-1.3-8.5-1.4-12.7-.6-4.2.8-8.2 2.4-11.9 4.6-1.8 1.1-3.6 2.3-5.3 3.7-1.7 1.3-3.2 2.8-4.7 4.4-2.7 3-5 6.5-6.8 10.2-2.4 1.5-4.4 3.5-6 5.8-1.8 2.6-3.2 5.6-4.1 8.7-1.7 6.2-1.7 12.8-.4 19.1 2.6 12.7 9.2 23.9 12.2 36.1 1.5 6.1 2.2 12.5 1.2 18.6-.5 3.1-1.6 6-3.1 8.8-1.5 2.8-3.3 5.3-5 8-1.7 2.7-3.3 5.5-4.3 8.6-1 3.1-1.4 6.5-.5 9.6.9 3.2 3 5.8 5.4 7.9 2.4 2.1 5.1 3.8 7.8 5.4-2.7-1.8-5.3-3.6-7.6-5.7-2.3-2.2-4.2-4.8-5-7.8-.8-3-.4-6.2.7-9.1 1-3 2.6-5.7 4.4-8.3s3.7-5.2 5.2-8.1c1.6-2.8 2.7-5.9 3.3-9.1 1.2-6.4.5-13-1-19.2-1.6-6.2-4-12.2-6.4-18.1-2.4-5.9-4.7-11.8-6.1-17.9-1.4-6.1-1.6-12.6 0-18.7.8-3.1 2-6 3.7-8.6 1.5-2.3 3.4-4.3 5.7-6-1.9 4-3.2 8.2-3.8 12.6-.5 4.2-.4 8.5.3 12.7.8 4.2 2.1 8.2 4 12-.8-1.9-1.5-3.9-2.1-5.9-.5-2-1-4.1-1.2-6.2-.5-4.1-.5-8.3.2-12.4s1.8-8.1 3.7-11.8c.9-1.9 1.9-3.7 3.1-5.4 1.2-1.7 2.5-3.3 3.8-4.9 5.5-6.1 12.8-10.8 20.9-12.6 4-.9 8.3-.9 12.3.2s7.7 3.3 10.4 6.5c-2.5-3.3-6.3-5.8-10.3-7.1zM69 26.8c-3.3 1.4-6.3 3.5-8.9 6-2.5 2.5-4.7 5.5-6.3 8.8-1.6 3.3-2.7 6.7-3.3 10.3-1.3 7.1-.8 14.4.3 21.5 1.2 7.1 3.1 14 4.8 20.9 1.7 6.9 3.3 13.8 3.8 20.9.4 7-.2 14.2-2.8 20.8-.6 1.6-1.4 3.2-2.2 4.8-.5.7-.9 1.5-1.4 2.2-.5.7-1 1.4-1.6 2.1-2.2 2.8-4.6 5.6-6 8.9-.7 1.7-1.2 3.5-1.2 5.3-.1 1.8.4 3.7 1.3 5.2.9 1.6 2.2 2.9 3.6 4s2.9 2 4.5 2.9c-1.5-1-3-2-4.3-3.1-1.3-1.1-2.6-2.4-3.4-4-.8-1.5-1.2-3.3-1.1-5 .1-1.7.6-3.4 1.3-5 1.5-3.2 3.9-5.9 6.1-8.6.6-.7 1.1-1.4 1.6-2.1s1-1.5 1.5-2.3c.9-1.6 1.8-3.2 2.4-4.9 1.4-3.4 2.2-6.9 2.7-10.5.5-3.6.5-7.2.3-10.8-.4-7.2-2-14.3-3.7-21.2-1.8-6.9-3.7-13.8-4.9-20.8-1.2-7-1.6-14.1-.5-21.1.5-3.5 1.5-6.9 3-10.1 1.5-3.2 3.5-6.1 6-8.7 2.4-2.6 5.4-4.7 8.5-6.2 3.2-1.5 6.8-2.2 10.3-2.1-3.4-.1-7.1.5-10.4 1.9z" fill="#0c080c" stroke-width="none" opacity="1" stroke="none"></path><path id="SvgjsPath5633" d="m76.2 26.7 4.5-3.6s4-4 13.6-4.9c5.9-.5 15 .1 21.4 4.1 2.6 1.6 4.5 4.8 4.5 4.8s-8.5-4.9-21-4.6c-12.4.4-17.8 1.6-23 4.2z" fill="#000000" stroke-width="none" opacity="1"></path></g></g><g id="svga-group-humanbody-back"><path id="SvgjsPath5385" d="M77.8 105.9s4.8 37.7 10 55.8c0 0-6.4 8.8-14.5 11.9-28.7 11.2-35 11.2-39.6 15.2-2.4 2.1.2 11.1 1.8 17.2 1.3 5 1.7 13.2 1.7 13.2h132.2s1.6-33-.6-39.8-7.1-2.9-21.9-4.5c-14.8-1.6-28.7-10.3-31-13.2l.3-60-38.4 4.2z" fill="#f3d4cf" stroke-width="none" opacity="1" stroke="none"></path></g><g id="svga-group-chinshadow-single"><path id="SvgjsPath5381" d="M85.6 152.8c6.6 3.5 10.7 3.5 10.7 3.5s8 0 19.6-9.5l.2-45.2-38.4 4.2c.1.1 3.6 27.7 7.9 47z" fill="#d4958a" stroke-width="none" opacity="1" stroke="none"></path></g><g id="svga-group-humanbody-front"><path id="SvgjsPath5386" d="M72.1 183.1s14.6-.2 20.4 2.6c5.8 2.9 12.7 2.4 16.1-1s21.6-7 21.6-7-19.7 1.9-25 4.6c-5.3 2.7-22.3-2.8-33.1.8z" fill="#d4958a" stroke-width="none" opacity="1" stroke="none"></path><path id="SvgjsPath5387" d="M74.2 173.2c6.7-1.3 14.7-6.4 14.7-6.4l6.2 5.5c-4.3-7.9-12.7-41.1-12.7-41.1l-.7.7c1.7 10.5 3.9 21.9 6.1 29.7 0 0-6 8.2-13.6 11.6z" fill="#d4958a" stroke-width="none" opacity="1" stroke="none"></path><path id="SvgjsPath5388" d="M170.7 188.5c-.1-2.1-.2-4.1-.4-6.2-.1-1-.3-2.1-.6-3.2-.2-.5-.4-1-.6-1.6-.2-.5-.6-1-1-1.5s-.9-.9-1.5-1.1c-.6-.3-1.1-.4-1.7-.6-1.1-.2-2.2-.2-3.2-.2-2.1 0-4.1.1-6.1.1s-4-.1-6-.2-4-.4-6-.7c-1-.2-2-.4-2.9-.6l-1.5-.4c-.5-.1-1-.3-1.4-.4-3.8-1.1-7.6-2.6-11.2-4.4l-1.3-.7-1.3-.7c-.4-.2-.9-.5-1.3-.8s-.9-.5-1.3-.8-.8-.5-1.3-.8l-1.2-.9-.6-.5-.3-.2-.3-.2c-.2-.2-.4-.3-.5-.5l-.2-.3v-44.6l-.1-15v-.6l-.6.1c-6.4.8-12.9 1.5-19.3 2.3l-19.1 2.3v.5l.1.4.1.9.2 1.8c.1 1.2.3 2.3.4 3.5l.9 7c.6 4.7 1.3 9.4 2.1 14 .8 4.7 1.5 9.3 2.5 14 .9 4.5 1.8 9 3 13.5-1.1 1.4-2.3 2.7-3.6 4-1.3 1.3-2.8 2.6-4.3 3.8-1.5 1.1-3.1 2.2-4.8 3l-1.3.6c-.4.2-.9.3-1.3.5l-2.7 1c-7.2 2.7-14.5 5.3-21.8 7.7l-5.5 1.8c-1.8.6-3.7 1.3-5.5 2.2-.4.2-.9.5-1.3.7-.4.3-.9.5-1.3.9l-.6.5c-.2.2-.5.5-.6.8-.3.5-.4 1.1-.5 1.6-.2 1.1-.1 2.1 0 3.1s.3 2 .4 2.9c.4 1.9.8 3.8 1.3 5.7l.8 2.8c.3.9.5 1.8.7 2.8.4 1.9.7 3.8.9 5.7s.4 3.8.5 5.7v.8h133.4v-.8c.2-4.1.4-8.2.5-12.3s.2-8.2.2-12.3c0-1.8-.1-3.8-.1-5.9zm-67.4 30.3H70.2l-16.5-.1-16-.1c-.1-1.8-.2-3.5-.4-5.3-.2-1.9-.4-3.9-.8-5.8-.2-1-.4-1.9-.7-2.9l-.7-2.8c-.5-1.9-.9-3.7-1.2-5.6-.2-.9-.3-1.9-.4-2.8-.1-.9-.1-1.9 0-2.7.1-.4.2-.8.4-1.1.1-.2.2-.3.3-.4l.5-.4c.3-.3.7-.5 1.1-.8.4-.2.8-.5 1.2-.7 1.7-.8 3.5-1.4 5.3-2l5.5-1.8c7.3-2.4 14.6-5 21.8-7.8l2.7-1c.5-.2.9-.3 1.4-.5l1.4-.6c1.8-.9 3.4-2 5-3.2s3-2.5 4.4-3.9 2.7-2.9 3.8-4.5l.2-.3-.1-.3c-1.3-4.5-2.3-9.1-3.3-13.7s-1.9-9.3-2.7-13.9c-.8-4.6-1.6-9.3-2.4-14l-2.2-13.9 19.3-1.8c6.2-.6 12.3-1.2 18.5-1.8l-.2 14.4-.2 15-.3 30v.4l.2.2.6.7.6.6.3.3.3.2.6.5c.4.3.9.6 1.3.9.4.3.9.6 1.3.9.4.3.9.5 1.3.8s.9.5 1.3.8l1.4.8 1.4.7c.5.2.9.5 1.4.7l1.4.7c1 .4 1.9.8 2.9 1.2s1.9.8 2.9 1.1l1.5.5c.5.2 1 .3 1.5.4.5.1 1 .3 1.5.4l1.5.4c1 .3 2 .4 3 .6 2 .4 4.1.6 6.2.8 2.1.2 4.1.2 6.2.2 2.1 0 4.1-.1 6.1-.1s4 .1 5 1.3c.5.6.9 1.4 1.2 2.3.3.9.4 1.9.6 2.8.3 2 .4 4 .5 6s.1 4.1.2 6.1c.1 7.9-.1 15.8-.4 23.7-10.8.1-21.5.1-32.3.2h-33.1z" fill="#c5796d" stroke-width="none" opacity="1" stroke="none"></path><path id="SvgjsPath5389" d="M150.7 219.2 147 198l-.4 21.2z" fill="#d4958a" stroke-width="none" opacity="1" stroke="none"></path><path id="SvgjsPath5390" d="M47.3 203.5s2.2 11.5 2.9 15.7h3.5l-6.4-15.7z" fill="#d4958a" stroke-width="none" opacity="1" stroke="none"></path></g><g id="svga-group-clothes-single"><path id="SvgjsPath6817" d="M83.26 143.21c-2.27.45-5.11 2.64-5.11 5.13 0 2.5.91 3.18.91 4.99s-2.72 2.27-1.59 5.67c1.13 3.4-.91 4.08-1.81 6.12-.91 2.04.68 3.86.68 3.86s-8.62 4.08-13.38 5.22-19.28 7.26-22.91 7.49-10.21 5.22-10.89 6.81-.68 8.39.45 10.66c1.13 2.27 1.13 9.53 1.59 11.34.45 1.81.8 8.7.8 8.7h139.62s.45-17.09 1.36-20.49c.91-3.4-.23-18.6-1.13-21.78-.91-3.18-8.62-7.03-11.34-6.58-2.72.45-29.57-2.97-36.38-6.37 0 0 .08-5.42-3.09-7.24 0 0 2.04-4.08.45-6.12s-.91-4.54-1.59-5.22c-.68-.68-2.95-2.04-2.95-2.04s-.64 2.75-4.72 4.11-23.42 1.09-26.14-.27-2.83-3.99-2.83-3.99z" fill="#09aac5" stroke-width="none" opacity="1"></path><path id="SvgjsPath6818" d="M173.89 184.26c-.18-1.95-.37-3.89-.69-5.86-.09-.5-.17-.99-.31-1.52-.04-.24-.2-.58-.31-.87-.13-.3-.3-.52-.46-.78-.68-.94-1.48-1.62-2.3-2.26-1.66-1.24-3.45-2.18-5.37-2.91-.97-.35-1.96-.65-3.12-.74-.27-.04-.62 0-.94.02l-.6.03c-.42 0-.92-.02-1.37-.04-3.81-.26-7.67-.74-11.49-1.27-3.83-.55-7.65-1.14-11.44-1.87-3.6-.72-7.29-1.47-10.55-2.8-.03-.54-.09-1.06-.17-1.59-.13-.72-.29-1.43-.55-2.13-.26-.7-.59-1.39-1.04-2.02-.33-.44-.74-.83-1.18-1.17.44-1.08.76-2.18.84-3.41.03-.72-.03-1.51-.38-2.26-.07-.19-.21-.36-.32-.54l-.26-.37a4.63 4.63 0 0 1-.39-.73c-.22-.52-.34-1.09-.42-1.69l-.11-.96c-.05-.34-.07-.69-.27-1.16-.32-.6-.63-.7-.89-.94a33.141 33.141 0 0 0-2.51-1.61l-.73-.43-.24.84c-.16.54-.56 1.22-1.04 1.72-.49.52-1.07.96-1.72 1.32-1.29.76-2.75 1.02-4.31 1.2-3.1.37-6.26.43-9.4.49-3.15.03-6.3 0-9.44-.23-.78-.06-1.56-.14-2.34-.24-.78-.12-1.54-.23-2.2-.6a4.74 4.74 0 0 1-1.69-1.52c-.21-.32-.4-.66-.53-1.02a3.5 3.5 0 0 1-.17-.55l-.06-.28-.02-.14-.01-.07c-.01-.01.02-.04-.04-.14-.17.01-.38.04-.55.08l-.46.14c-.3.11-.59.23-.88.37-.57.28-1.1.63-1.59 1.05-.96.81-1.8 1.93-1.94 3.28-.05.66-.01 1.29.1 1.93.11.64.32 1.25.49 1.83.16.57.25 1.19.19 1.71-.07.49-.46.93-.86 1.42-.4.48-.81 1.09-.97 1.78-.17.7-.08 1.41.08 2.05.38 1.22.57 2.33.07 3.31-.47.97-1.54 1.85-2.01 3.23-.22.69-.23 1.46-.05 2.14.12.46.29.87.52 1.27-2.92 1.31-5.9 2.55-8.9 3.62-.8.28-1.61.55-2.42.78-.8.24-1.61.41-2.49.65-1.69.48-3.32 1.06-4.95 1.63-3.26 1.15-6.48 2.35-9.73 3.46-1.62.56-3.25 1.09-4.87 1.53-.41.12-.81.2-1.2.29-.43.1-.69.1-1.2.18-1 .11-1.88.42-2.71.77-1.68.71-3.19 1.63-4.64 2.65-.72.52-1.43 1.05-2.11 1.64-.34.3-.67.6-1 .94-.32.34-.66.7-.95 1.3-.37 1.09-.39 1.92-.46 2.83-.05.89-.05 1.78-.03 2.66.03.88.09 1.77.21 2.66.12.89.26 1.78.6 2.72.23.57.34.74.45 1.15.11.36.2.76.27 1.17.15.81.26 1.65.35 2.49.18 1.69.28 3.4.45 5.14.05.44.09.88.18 1.35l.14.64.1.6c.12.82.22 1.67.3 2.52.16 1.7.29 3.42.4 5.12l.04.69.68-.01c11.64-.11 23.27-.31 34.91-.35l17.45-.06 17.45.06 34.91.33 34.91.24.9.01.03-.91c.13-3.87.29-7.75.53-11.61.12-1.93.25-3.86.45-5.76.11-.93.21-1.93.4-2.74.25-1.04.33-2.11.37-3.09.11-3.99-.1-7.88-.42-11.78zm-54.94-38.75c.23.17.51.43.46.43.13.31.15 1.06.22 1.71.08.68.21 1.39.48 2.08.14.34.31.68.51.99.09.14.24.34.29.43.05.1.13.18.17.3.19.43.25.97.21 1.54-.08 1.13-.49 2.35-.99 3.41l-.31.66.63.4c.47.3.88.69 1.23 1.16.34.48.59 1.04.8 1.63.21.59.34 1.21.45 1.85.1.62.16 1.3.15 1.89v.55l.48.23c.09.05.19.08.28.12-3.8 1.26-7.54 2.65-11.26 4.07.15-.55.29-1.1.43-1.65.11-.5.21-.99.29-1.5.09-.53.08-1.07.04-1.59-.09-1.06-.4-2.08-.79-3.04-.17-.41-.38-.81-.59-1.2.03-.02.07-.03.1-.05-.04.01-.07.01-.11.02l-.09-.18c-.26-.47-.56-.89-.54-1.13-.05-.2.26-.57.59-1 .32-.42.61-.91.8-1.42.19-.51.36-1.05.33-1.65-.01-.61-.31-1.21-.68-1.61-.45-.51-.96-.93-1.4-1.36.83-.59 1.6-1.24 2.28-1.98.36-.39.71-.79 1.05-1.2-.01.08-.02.16-.04.25-.01.07-.02.12-.01.23 0 .04.03.13.09.19.03.03.08.06.12.08l.02.01c.07.04.16.11.24.19.66.58 1.1 1.4 1.15 2.22.01.39-.03.92-.06 1.34-.04.45-.13.84-.28 1.27-.15.41-.31.91-.47 1.28-.16.38-.41.73-.68 1.14-.26.39-.58.93-.57 1.57 0 .63.26 1.14.52 1.57.26.41.54.81.8 1.18.28.41.4.62.35 1.03-.04.43-.19.84-.28 1.36-.08.51-.03 1.04.11 1.52.28.95.9 1.71.77 2.68.18-.44.14-.97.02-1.43-.11-.47-.25-.92-.31-1.36-.07-.44-.06-.87.05-1.28.11-.39.31-.87.4-1.38.05-.26.07-.58-.02-.88-.09-.3-.24-.52-.36-.73-.26-.41-.5-.79-.73-1.2-.21-.37-.37-.75-.36-1.08 0-.32.17-.65.43-1.03.25-.38.54-.81.74-1.3.19-.5.33-.9.47-1.38.14-.47.24-1 .26-1.5.01-.51.02-.93-.04-1.48-.15-1.07-.8-1.97-1.63-2.53-.11-.07-.21-.13-.36-.19h-.01c0-.02 0-.05-.01-.08 0-.2 0-.43-.03-.65.59-.75 1.13-1.55 1.55-2.4.35-.38.66-.81.91-1.3.33.21.66.42.98.64.27.15.52.33.76.52zm-36.43 25.61c-.43-.93-.85-1.86-1.17-2.82-.2-.56-.38-1.15-.4-1.69-.01-.27.05-.42.22-.63.18-.21.41-.46.6-.73.38-.55.67-1.1.87-1.78.09-.34.11-.82-.11-1.2-.2-.37-.42-.59-.58-.82a3.98 3.98 0 0 1-.73-1.47c-.16-.54-.2-1.07-.04-1.49.15-.42.57-.78 1.03-1.25.05-.05.1-.12.16-.17.98.96 2.02 1.87 3.18 2.66.18.13.37.24.55.36-.01.02-.03.02-.04.02-.09.09-.35.11-.72.38a.96.96 0 0 0-.37.64c-.04.24 0 .41.03.59.16.63.43 1.11.71 1.59.28.48.59.95.95 1.38.35.43.77.84 1.1 1.19.16.18.28.34.33.5.06.15.06.41.03.53-.02.25-.48.39-1.05.79-.3.21-.49.68-.44 1.03.04.34.14.63.27.88.68 1.3 1.58 2.4 2.57 3.4-.39-.06-.78-.12-1.16-.21-1.93-.44-3.86-1.04-5.79-1.68zm7.38 1.99c-.93-1.19-1.79-2.42-2.37-3.74-.1-.23-.15-.46-.16-.65.01-.19.05-.26.19-.37.15-.11.39-.19.66-.34.26-.14.61-.41.73-.82.1-.4.09-.69 0-1.05-.1-.35-.31-.63-.49-.85-.38-.44-.73-.78-1.05-1.19-.32-.4-.59-.82-.85-1.27-.25-.44-.49-.92-.6-1.32-.01-.09-.03-.18-.02-.21.01-.04-.01-.01.01-.03.05-.06.35-.13.69-.37.1-.07.19-.18.27-.3.88.51 1.79.95 2.71 1.36 1.27.53 2.57.7 3.83.81.22.22.33.6.34 1-.42.29-.71.68-.86 1.16-.18.59-.05 1.18.12 1.65.15.48.46.96.73 1.32.27.35.41.7.49 1.14.13.86.17 1.9.49 2.79.15.46.33.91.59 1.32.01.01.02.03.03.04-.34.02-.68.05-1.03.06-1.5.07-2.99.05-4.45-.14zm5.73.08c-.02-.05-.05-.09-.07-.13-.2-.41-.31-.86-.4-1.31-.08-.45-.13-.91-.16-1.37-.04-.45-.01-.91-.07-1.42-.04-.49-.22-1.05-.5-1.47-.26-.41-.43-.75-.56-1.18-.13-.41-.17-.79-.06-1.11.09-.31.38-.6.65-.73l.27-.13.02-.25c.04-.44.01-.83-.13-1.26 2.99.07 5.93-.18 8.83-.64 1.5-.22 2.98-.53 4.45-.87.73-.19 1.47-.37 2.19-.59.38-.12.76-.24 1.14-.38.22.39.42.78.61 1.18.42.88.72 1.81.89 2.75.18.94.05 1.91-.04 2.92-.05.61-.12 1.22-.19 1.82-.04.02-.09.03-.13.05-1.97.73-3.93 1.53-5.89 2.22-1.9.73-3.88 1.11-5.94 1.4-1.62.27-3.26.41-4.91.5zm18.92-25.82-.15-.24c.28-.16.56-.34.83-.54-.06.07-.11.14-.17.21-.17.2-.34.38-.51.57zm.26 1.42c0 .01 0 .02 0 0 0 .01 0 0 0 0zm-.7-1.5c.06-.03.12-.07.18-.11.05.11.09.21.12.32-.49.54-1 1.06-1.54 1.54-.76.66-1.53 1.3-2.37 1.82-.02-.03-.04-.05-.06-.08-.26-.38-.34-.84-.25-1.32.03-.24.11-.49.13-.75.01-.1-.01-.21-.05-.3.49-.06.99-.14 1.49-.25.84-.15 1.59-.49 2.35-.87zm-14.28 1.49c3.17.06 6.33.03 9.52-.26l.83-.09c.02.09.02.18-.01.27-.05.23-.16.46-.24.71-.17.49-.17 1.1.08 1.61.02.04.05.07.07.11-.76.44-1.55.79-2.39.9-2.02.29-4.16.28-6.26.34l-3.17.04-3.18.08c1.05.18 2.11.28 3.16.41 1.06.09 2.12.17 3.18.24 2.13.11 4.25.16 6.43-.13 1.01-.15 1.95-.58 2.78-1.1.44.54.93 1 1.3 1.5.58.71.48 1.55.08 2.42-.19.42-.41.81-.71 1.19-.14.19-.31.38-.48.62-.16.23-.35.6-.33.99.02.39.16.69.3.94l.3.5c-.36.04-.73.06-1.09.1l-2.24.17-4.47.29c-2.97.16-5.95.32-8.85.2-.54-.02-1.07-.06-1.59-.11 0-.04-.01-.09-.01-.13-.04-.69-.08-1.44-.18-2.15-.09-.69-.18-1.34-.36-2.06l.79-4.2.01-.05v-.03c-.15-1.2-.25-2.43-.17-3.66 2.29.19 4.59.28 6.9.34zm-21.26 1.1c-.12-.58-.18-1.21-.15-1.79.07-1.16.79-2.23 1.68-3.05a8.2 8.2 0 0 1 1.48-1.07c.27-.14.55-.28.83-.39l.43-.15c.12-.03.21-.07.33-.13l.01.07.02.15c.01.1.03.2.05.3a4.993 4.993 0 0 0 .69 1.67 5.18 5.18 0 0 0 1.74 1.68c.33.23.75.34 1.14.47.39.08.78.19 1.18.25.79.14 1.57.24 2.36.33.85.09 1.69.17 2.54.23-.14.57-.22 1.15-.26 1.74a20 20 0 0 0-.05 1.9l-1.12 4.2-.02.08.03.13c.13.62.21 1.35.27 2.04.06.69.11 1.34.14 2.04-.53-.09-1.04-.21-1.52-.39-1.13-.41-2.21-.9-3.27-1.45-.05-.45-.06-.81.06-1.22.06-.24.15-.44.25-.72.12-.29.16-.59.19-.88.09-1.15-.12-2.22-.45-3.28-.11-.8-.18-1.63-.14-2.45.02-.41.07-.83.18-1.22.11-.39.26-.79.55-1.11-.66.56-.92 1.46-1.06 2.29-.14.85-.17 1.71-.09 2.58v.01l.01.04c.23.99.36 2.07.21 3.03-.05.24-.1.47-.19.68-.08.21-.22.51-.3.78-.11.3-.15.64-.16.97-1.09-.61-2.14-1.31-3.18-2.06.12-.3.2-.63.17-.9-.02-.72-.23-1.32-.42-1.92-.2-.6-.43-1.16-.66-1.73-.41-1.13-.91-2.28-.47-3.34.38-1.09 1.42-1.87 2.48-2.46-1.15.39-2.31 1.07-2.92 2.27-.29.6-.36 1.31-.25 1.95.09.64.27 1.24.45 1.83.33 1.17.84 2.35.86 3.41 0 .12-.01.22-.03.31-.91-.67-1.82-1.36-2.75-2.04.05-.7-.08-1.32-.27-1.93-.26-.59-.48-1.16-.6-1.75zm-2.54 15.77c.3-1.04 1.25-1.86 1.88-3.13.66-1.31.29-2.86-.11-3.96-.16-.55-.24-1.12-.13-1.65.1-.53.38-1.01.76-1.49.34-.46.81-.99.93-1.72.74.92 1.51 1.82 2.33 2.68-.05.06-.11.12-.17.18-.39.4-.98.83-1.27 1.58-.27.75-.15 1.49.04 2.12.18.63.5 1.27.93 1.78.21.25.42.48.52.65.1.16.1.33.06.59-.13.5-.37 1.07-.66 1.55-.15.25-.32.46-.52.73-.22.27-.35.75-.29 1.09.08.68.32 1.27.57 1.84.44.91.95 1.77 1.49 2.6-1.76-.59-3.52-1.21-5.29-1.82l.14-.07-.48-.58c-.66-.81-1.05-1.99-.73-2.97zm96.21 30.29c-.03.96-.1 1.84-.29 2.69-.24 1.08-.32 2.03-.43 3.02-.19 1.96-.3 3.91-.41 5.85-.19 3.59-.31 7.18-.41 10.77l-18.2.12c.21-1.85.13-3.74-.16-5.6-.08-.51-.21-1.03-.3-1.52-.1-.48-.13-.98-.16-1.47-.01-1 .05-2.01.18-3.01.51-4.02 1.52-7.99 2.68-11.9.56-1.95 1.14-3.94 1.82-5.83.69-1.88 1.69-3.64 3.02-5.12 1.34-1.48 3.02-2.63 4.84-3.52 1.8-.95 3.73-1.66 5.58-2.54-1.94.67-3.89 1.29-5.79 2.1-1.89.82-3.7 1.94-5.19 3.44-1.5 1.49-2.55 3.38-3.31 5.32-.74 1.95-1.33 3.9-1.93 5.87-1.09 3.96-2.12 7.96-2.49 12.1-.09 1.03-.1 2.08-.05 3.12.05.52.11 1.05.24 1.57l.37 1.48c.42 1.79.61 3.65.58 5.5l-15.74.11-34.91.33-17.45.06-17.45-.06c-4.39-.02-8.77-.06-13.16-.1-.23-1.51-.51-3-.76-4.51l-.93-4.93c-.3-1.65-.66-3.28-.98-4.92l-.52-2.46-.26-1.23-.35-1.25c-1.15-3.28-3.27-6.06-5.69-8.41-2.44-2.33-5.25-4.34-8.42-5.49 1.49.76 2.89 1.67 4.2 2.7 1.32 1.01 2.55 2.13 3.68 3.33 2.24 2.41 4.24 5.12 5.29 8.19l.33 1.16.27 1.22.55 2.45c.39 1.63.74 3.26 1.16 4.88l1.21 4.87c.4 1.47.77 2.94 1.19 4.4-7.01-.08-14.01-.17-21.02-.24-.07-1.5-.14-3-.25-4.51-.07-.87-.14-1.73-.25-2.62l-.1-.68-.12-.63c-.06-.37-.11-.79-.15-1.21-.15-1.69-.24-3.42-.41-5.16-.08-.87-.19-1.74-.35-2.63-.08-.44-.17-.89-.31-1.35-.1-.43-.4-1.02-.48-1.26-.48-1.41-.6-3.17-.66-4.82-.02-.84-.01-1.68.04-2.5.05-.8.15-1.71.35-2.26.09-.17.31-.48.59-.76.26-.28.56-.57.87-.84.61-.55 1.28-1.06 1.95-1.55 1.36-.97 2.8-1.86 4.29-2.5.74-.32 1.51-.59 2.23-.67.34-.06.95-.11 1.35-.21.44-.1.89-.2 1.3-.32 1.7-.48 3.34-1.03 4.97-1.61 3.26-1.15 6.48-2.38 9.71-3.55 1.61-.59 3.23-1.16 4.85-1.66.78-.23 1.64-.44 2.49-.71.84-.26 1.66-.56 2.48-.86 3.26-1.23 6.41-2.64 9.53-4.13l.37-.18c3.48 1.98 7.07 3.75 10.97 5 2.11.69 4.35.79 6.49.82 2.16-.01 4.3-.18 6.43-.47 2.1-.32 4.3-.77 6.32-1.61 1.98-.81 3.92-1.65 5.83-2.55 3.76-1.74 7.47-3.59 11.09-5.63 1.77.8 3.54 1.3 5.33 1.81 1.9.5 3.81.93 5.72 1.33 3.83.79 7.67 1.46 11.53 2.01 3.86.55 7.72 1.04 11.66 1.32.51.02.99.05 1.54.05l.85-.05c.17 0 .3-.04.51 0 .78.06 1.67.32 2.52.63 1.71.65 3.38 1.54 4.83 2.64.71.55 1.38 1.16 1.84 1.8.09.16.23.32.28.47.05.17.14.26.18.5.11.41.18.87.26 1.33.29 1.86.48 3.79.65 5.71.29 3.86.56 7.74.45 11.53z" fill="#008fa6" stroke-width="none" opacity="1"></path></g><g id="svga-group-head" transform="matrix(1,0,0,1,0,0)"><g id="svga-group-ears-left-move" transform="matrix(1,0,0,1,0,0)"><g id="svga-group-ears-left"><path id="SvgjsPath5333" d="M63.09 94.03s-3.12-7.36-5.69-9.71c-2.57-2.34-7.59-5.02-9.48-4.35-1.9.67 1.12 8.81 2.23 10.6 1.12 1.79 1.12 11.49 1.23 14.39.11 2.9 2.9 6.25 5.02 8.7 2.12 2.45 4.24-1.12 5.69-4.35s1-15.28 1-15.28z" fill="#f3d4cf" stroke-width="none" opacity="1" stroke="none"></path><path id="SvgjsPath5334" d="M61.92 100.31c-.33-2.85-5.11-11.21-6.86-12.8-1.76-1.59-5.69-4.44-5.77-3.52s2.26 5.69 2.34 8.54.17 10.96 1.09 12.72c.92 1.76 5.69 1.51 6.53-.17s2.67-4.77 2.67-4.77z" fill="#e4b3ab" stroke-width="none" opacity="1" stroke="none"></path><path id="SvgjsPath5335" d="M47.07 80.79c-.11.94.06 1.79.25 2.64.4 1.69.98 3.31 1.62 4.9.33.79.68 1.58 1.11 2.33.35.72.47 1.6.59 2.43.22 1.69.26 3.4.32 5.11.04 1.71.03 3.42.05 5.13.03.85-.04 1.71.14 2.62.17.89.52 1.72.93 2.5.82 1.56 1.87 2.94 2.96 4.28.27.33.55.67.83.99.13.16.29.33.47.5.16.18.38.32.6.45.46.25 1.07.32 1.58.14.49-.19.88-.49 1.21-.81.66-.65 1.13-1.41 1.57-2.16.43-.76.81-1.54 1.15-2.34.63-1.74.72-3.45.84-5.17.17-3.44.07-6.86-.15-10.29-.62-1.62-1.31-3.18-2.08-4.71-.79-1.52-1.59-3.06-2.7-4.42-.56-.69-1.24-1.27-1.92-1.8-.69-.53-1.41-1.01-2.15-1.47-1.49-.89-3.07-1.66-4.83-2.01-.44-.07-.91-.11-1.4.01-.22.02-.56.2-.71.44-.18.22-.23.47-.28.71zm.56.1c.04-.18.1-.36.19-.47.1-.11.16-.15.37-.18.35-.08.75-.02 1.14.05 1.6.33 3.13 1.13 4.58 1.96.73.42 1.44.88 2.11 1.38.68.51 1.32 1.03 1.85 1.67 1.07 1.27 1.97 2.74 2.81 4.22.83 1.48 1.63 3.01 2.37 4.53-.03 3.41-.11 6.84-.4 10.23-.16 1.68-.34 3.42-.92 4.9-.73 1.51-1.47 3.09-2.59 4.22-.28.27-.59.49-.9.61-.31.1-.61.06-.9-.09-.55-.33-1.09-1.11-1.65-1.73-1.09-1.3-2.14-2.64-2.94-4.1-.4-.73-.72-1.5-.9-2.28-.17-.76-.15-1.64-.19-2.49-.06-1.71-.14-3.42-.25-5.13-.11-1.71-.25-3.42-.48-5.12-.14-.85-.25-1.71-.66-2.52-.43-.72-.75-1.52-1.07-2.31-.62-1.59-1.13-3.22-1.44-4.89-.14-.84-.26-1.7-.13-2.46z" fill="#e4b3ab" stroke-width="none" opacity="1" stroke="none"></path><path id="SvgjsPath5336" d="M53.38 89.46c.58 1.22 1.11 2.47 1.51 3.75.4 1.29.75 2.59 1.06 3.9.29 1.31.56 2.63.72 3.97l-.08.02c-.42-1.28-.8-2.56-1.2-3.84-.39-1.28-.78-2.56-1.2-3.82-.41-1.27-.78-2.55-1.24-3.8-.38-1.05-.84-2.1-1.49-3 .37 1.58.79 3.15 1.13 4.74.19.9.36 1.8.49 2.71.07.46.13.92.17 1.38.05.46.04.98.04 1.39.05 1.78.28 3.6.53 5.39.14.9.28 1.79.47 2.67.09.44.2.88.32 1.3.01.02.01.04.02.06.04-.85.09-1.71.11-2.56.04-1.28.1-2.55.06-3.83l.08-.01c.17 1.27.2 2.56.25 3.84.03 1.28.04 2.56.05 3.84v.8l-.52-.59c-.4-.46-.51-.9-.68-1.34-.15-.45-.28-.89-.39-1.34-.23-.9-.42-1.8-.58-2.71-.31-1.82-.56-3.63-.58-5.51.09-1.79-.24-3.58-.47-5.39-.26-1.8-.5-3.62-.9-5.4l-.12-.54.35.42c.88 1.08 1.49 2.29 2.09 3.5z" fill="#c5796d" stroke-width="none" opacity="1" stroke="none"></path></g></g><g id="svga-group-ears-right-move" transform="matrix(1,0,0,1,0,0)"><g id="svga-group-ears-right"><path id="SvgjsPath5337" d="M136.91 94.03s3.12-7.36 5.69-9.71c2.57-2.34 7.59-5.02 9.48-4.35s-1.12 8.81-2.23 10.6c-1.12 1.79-1.12 11.49-1.23 14.39-.11 2.9-2.9 6.25-5.02 8.7-2.12 2.45-4.24-1.12-5.69-4.35-1.45-3.23-1-15.28-1-15.28z" fill="#f3d4cf" stroke-width="none" opacity="1" stroke="none"></path><path id="SvgjsPath5338" d="M138.08 100.31c.33-2.85 5.11-11.21 6.86-12.8 1.76-1.59 5.69-4.44 5.77-3.52.08.92-2.26 5.69-2.34 8.54s-.17 10.96-1.09 12.72c-.92 1.76-5.69 1.51-6.53-.17s-2.67-4.77-2.67-4.77z" fill="#e4b3ab" stroke-width="none" opacity="1" stroke="none"></path><path id="SvgjsPath5339" d="M152.66 80.07c-.15-.24-.49-.42-.71-.44-.49-.12-.96-.08-1.4-.01-1.76.35-3.34 1.12-4.83 2.01-.74.45-1.46.93-2.15 1.47-.68.53-1.36 1.1-1.92 1.8-1.11 1.36-1.91 2.9-2.7 4.42-.77 1.54-1.46 3.1-2.08 4.71-.23 3.43-.33 6.85-.15 10.29.12 1.72.22 3.44.84 5.17.34.79.72 1.58 1.15 2.34.44.76.91 1.51 1.57 2.16.33.32.72.62 1.21.81.51.18 1.11.11 1.58-.14.22-.14.44-.27.6-.45.18-.17.34-.34.47-.5.28-.32.55-.66.83-.99 1.09-1.34 2.14-2.72 2.96-4.28.4-.78.75-1.61.93-2.5.17-.92.11-1.77.14-2.62.02-1.71.01-3.42.05-5.13.05-1.71.1-3.42.32-5.11.12-.83.23-1.71.59-2.43.43-.76.78-1.54 1.11-2.33.64-1.59 1.21-3.21 1.62-4.9.18-.85.36-1.7.25-2.64-.06-.23-.11-.48-.28-.71zm-.42 3.27c-.31 1.66-.82 3.3-1.44 4.89-.32.79-.63 1.59-1.07 2.31-.41.81-.52 1.67-.66 2.52-.22 1.7-.37 3.41-.48 5.12-.11 1.71-.2 3.42-.25 5.13-.05.85-.02 1.73-.19 2.49-.18.79-.5 1.55-.9 2.28-.8 1.46-1.85 2.8-2.94 4.1-.56.62-1.1 1.4-1.65 1.73-.29.15-.59.19-.9.09-.31-.12-.62-.34-.9-.61-1.12-1.13-1.86-2.71-2.59-4.22-.58-1.47-.76-3.22-.92-4.9-.29-3.39-.37-6.82-.4-10.23.74-1.52 1.54-3.05 2.37-4.53.84-1.48 1.73-2.95 2.81-4.22.53-.63 1.17-1.16 1.85-1.67.67-.5 1.39-.96 2.11-1.38 1.45-.83 2.98-1.63 4.58-1.96.39-.07.8-.12 1.14-.05.21.03.27.07.37.18.09.11.15.29.19.47.13.77.01 1.63-.13 2.46z" fill="#e4b3ab" stroke-width="none" opacity="1" stroke="none"></path><path id="SvgjsPath5340" d="M146.62 89.46c-.58 1.22-1.11 2.47-1.51 3.75-.4 1.29-.75 2.59-1.06 3.9-.29 1.31-.56 2.63-.72 3.97l.08.02c.42-1.28.8-2.56 1.2-3.84.39-1.28.78-2.56 1.2-3.82.41-1.27.78-2.55 1.24-3.8.38-1.05.84-2.1 1.49-3-.37 1.58-.79 3.15-1.13 4.74-.19.9-.36 1.8-.49 2.71-.07.46-.13.92-.17 1.38-.05.46-.04.98-.04 1.39-.05 1.78-.28 3.6-.53 5.39-.14.9-.28 1.79-.47 2.67-.09.44-.2.88-.32 1.3-.01.02-.01.04-.02.06-.04-.85-.09-1.71-.11-2.56-.04-1.28-.1-2.55-.06-3.83l-.08-.01c-.17 1.27-.2 2.56-.25 3.84-.03 1.28-.04 2.56-.05 3.84v.8l.52-.59c.4-.46.51-.9.68-1.34.15-.45.28-.89.39-1.34.23-.9.42-1.8.58-2.71.31-1.82.56-3.63.58-5.51-.09-1.79.24-3.58.47-5.39.26-1.8.5-3.62.9-5.4l.12-.54-.35.42c-.88 1.08-1.49 2.29-2.09 3.5z" fill="#c5796d" stroke-width="none" opacity="1" stroke="none"></path></g></g><g id="svga-group-faceshape-wrap"><g id="svga-group-faceshape-single"><path id="SvgjsPath5367" d="M135.9 49.8c-6.7-7.4-11.3-13.2-28.8-17.3-1.8-.4-12.3-.4-14.1 0-17.5 4.1-22.1 9.9-28.8 17.3-7.1 7.8-9.5 29-9.5 29 0 9.6 1.3 32.3 13.3 47.2 17.8 22.2 32.1 22.3 32.1 22.3s14.2 0 32.1-22.3c12-14.9 13.3-37.6 13.3-47.2-.1 0-2.5-21.2-9.6-29z" fill="#f3d4cf" stroke-width="none" opacity="1" stroke="none"></path><path id="SvgjsPath5368" d="M107.1 32.5c-1.8-.4-12.3-.4-14.1 0-17.5 4.1-22.1 9.9-28.8 17.3-7.1 7.8-9.5 29-9.5 29 0 9.6 1.3 32.3 13.3 47.2 17.8 22.2 32.1 22.3 32.1 22.3s14.2 0 32.1-22.3c12-14.9 13.3-37.6 13.3-47.2 0 0-2.4-21.2-9.5-29-6.9-7.4-11.5-13.2-28.9-17.3zM142 63.8c.7 2.5 1.1 5 1.6 7.5.4 2.5.7 5 1 7.5-.2 7.4-1.3 14.8-3 22-.9 3.6-1.9 7.1-3.3 10.5-.7 1.7-1.4 3.4-2.2 5s-1.7 3.2-2.7 4.7l-1.5 2.2c-.3.4-3.4 4.2-3.4 4.2l-3.7 4.1-6.1 5.7c-2.8 2.3-5.8 4.5-9 6.2l-1.2.6-1.2.6c-.8.4-1.6.7-2.5 1l-1.3.4c-.4.1-.8.2-1.3.3-.4.1-1.71.43-2.9.4 0 0-1.4-.2-1.9-.3-.4-.1-.9-.2-1.3-.3l-1.3-.4c-.8-.3-1.7-.6-2.5-1l-1.2-.5-1.2-.6c-3.2-1.6-6.3-3.7-9.1-6l-4.1-3.6-3.9-3.9-1-1-.9-1-1.8-2.1c-1.2-1.4-2.3-2.8-3.3-4.4-1-1.5-2-3.1-2.8-4.8-.8-1.6-1.6-3.3-2.3-5.1-.7-1.7-1.3-3.5-1.8-5.3s-1-3.6-1.4-5.4-.8-3.6-1-5.5c-.3-1.8-.5-3.7-.7-5.5-.4-3.7-.5-7.4-.5-11.1.3-2.3.8-4.6 1.2-6.9.5-2.3 1.1-4.6 1.7-6.8.7-2.2 1.4-4.5 2.3-6.6.4-1.1.9-2.1 1.4-3.1s2.59-4.47 6.3-8.1c1.6-1.7 3.3-3.3 5-4.7 3.5-2.8 7.7-4.9 12-6.5l1.6-.6c6.69-2.31 10.6-2.2 11.8-2.3 2.3-.1 4.71-.26 7-.1 3.16.22 6.8 1.4 6.8 1.4 2.3.6 4.5 1.3 6.7 2.3.3.1 1.6.7 1.6.7.5.3 2.6 1.3 3.1 1.7.5.3 5.3 3.7 6.9 5.4 1.7 1.7 3.3 3.4 4.9 5.2 1.7 1.9 2.9 4.2 3.9 6.6 1.1 2.4 1.9 4.8 2.5 7.3z" fill="#c5796d" stroke-width="none" opacity="1" stroke="none"></path></g></g><g id="svga-group-mouth-single-move" transform="matrix(1,0,0,1,0,0)"><g id="svga-group-mouth-single"><path id="SvgjsPath5322" d="M86.3 122.77s3.78 5.21 6.46 6.76c2.69 1.54 6.74 2.85 11.37 1.48s9.37-6.41 9.37-6.41-5.48-2.85-7.85-3.27c-2.37-.42-6 1.66-6 1.66s-2.47-1.96-3.95-2.2-9.4 1.98-9.4 1.98z" fill="#da7c87" stroke-width="none" opacity="1" stroke="none"></path><path id="SvgjsPath5323" d="M84.89 122.33c2.54.48 5.06 1.07 7.57 1.72 1.26.32 2.5.67 3.76 1.04.65.2 1.19.39 1.81.47.61.09 1.23.12 1.86.11 1.25.01 2.52-.11 3.77-.31.31-.05.62-.1.94-.16.32-.06.65-.12.97-.16.64-.1 1.29-.17 1.93-.24 1.29-.13 2.58-.21 3.87-.25 1.29.02 2.55-.09 3.83-.34-1.21.49-2.52.76-3.79.89-1.27.17-2.54.36-3.81.57l-1.89.34c-.31.06-.62.13-.93.2l-.96.21c-1.29.24-2.59.37-3.91.38-.66-.01-1.32-.04-1.99-.15-.66-.09-1.36-.32-1.94-.53l-3.69-1.21c-2.49-.82-4.95-1.65-7.4-2.58z" fill="#cb5f6c" stroke-width="none" opacity="1" stroke="none"></path></g></g><g id="svga-group-eyes-left-move" transform="matrix(1,0,0,1,0,0)"><g id="svga-group-eyes-left"><g id="svga-group-eyesback-left"><path id="SvgjsPath5664" d="M80.2 77.2c7.5 0 13.5 5.8 13.5 13s-6 13-13.5 13-13.5-5.8-13.5-13 6-13 13.5-13z" fill="#ffffff" stroke-width="none" opacity="1"></path></g><g id="svga-group-eyesiriswrapper-left" transform="matrix(1,0,0,1,0,0)"><g id="svga-group-eyesiriscontrol-left" transform="matrix(1,0,0,1,0,0)"><g id="svga-group-eyesiris-left"><path id="SvgjsPath6553" d="M80.2 84.6c3.1 0 5.6 2.5 5.6 5.6s-2.5 5.6-5.6 5.6-5.6-2.5-5.6-5.6 2.5-5.6 5.6-5.6z" fill="#4e60a3" stroke-width="none" opacity="1"></path><path id="SvgjsPath6554" d="M80.2 86.3c2.1 0 3.9 1.7 3.9 3.9s-1.7 3.9-3.9 3.9-3.9-1.7-3.9-3.9 1.8-3.9 3.9-3.9z" fill="#000000" stroke-width="none" opacity="1"></path><path id="SvgjsPath6555" d="m76.1 87.6 4.4 3.1-1.8-5.1c-.3-.4-2.5.8-2.6 2z" fill="#ffffff" stroke-width="none" opacity="1"></path></g></g></g><g id="svga-group-eyesfront-left"><path id="SvgjsPath5672" d="M80.2 76.7c-7.8 0-14.1 6.1-14.1 13.6s6.3 13.6 14.1 13.6 14.1-6.1 14.1-13.6S88 76.7 80.2 76.7zm4.3 20.5c-4-.4-16.3-9-13.3-11s8.2-1.2 10.6-.3c2.4.9 8.2 10.4 8.2 10.4.2.4-1.5 1.3-5.5.9z" fill="#f3d4cf" stroke-width="none" opacity="1" stroke="none"></path><path id="SvgjsPath5673" d="M90.1 96.3c-.5-.9-1.1-1.7-1.6-2.6-.2-.3-.4-.7-.4-.7-1.6-2.8-3.1-4.7-4.5-6.1l-.6-.6c-.1-.1-.2-.2-.3-.2-2.3-1.8-4.3-2.2-6.2-2.4-3.2-.3-8.7-.2-9.4.7s1.4 3.2 4.3 5.8c1 .8 3.1 2.2 5 3.3.7.5 1.4 1 2.2 1.4.9.5 1.8 1 2.7 1.4.9.4 1.9.8 2.9 1 1 .1 2.1.1 3.1 0 .5-.1 1-.1 1.5-.2.2-.1.5-.1.7-.2.1-.1.2-.1.3-.2.2-.1.3-.2.3-.4zm-.2.3c-.1.1-.2.1-.3.2-.2.1-.5.2-.7.2-.5.1-1 .2-1.5.2-1 0-2 0-3-.2s-1.9-.6-2.8-1.1c-.9-.4-1.8-.9-2.6-1.5-1.7-1.1-3.4-2.2-4.9-3.5-.8-.7-1.5-1.3-2.1-2.1-.1-.1-.1-.2-.2-.2-.2-.4-.3-.8-.4-1-.4-1.2.4-1.6 2.9-2.1s5.8-.1 7.5.8c1 .5 2.2 1.6 3.2 2.8.6.7 1.2 1.5 1.8 2.3 1.2 1.6 2.4 3.3 3.5 5-.2 0-.3.2-.4.2z" fill="#000000" stroke-width="none" opacity="1" stroke="none"></path></g></g></g><g id="svga-group-eyes-right-move" transform="matrix(1,0,0,1,0,0)"><g id="svga-group-eyes-right"><g id="svga-group-eyesback-right"><path id="SvgjsPath5665" d="M119.8 77.2c7.5 0 13.5 5.8 13.5 13s-6 13-13.5 13-13.5-5.8-13.5-13 6-13 13.5-13z" fill="#ffffff" stroke-width="none" opacity="1"></path></g><g id="svga-group-eyesiriswrapper-right" transform="matrix(1,0,0,1,0,0)"><g id="svga-group-eyesiriscontrol-right" transform="matrix(1,0,0,1,0,0)"><g id="svga-group-eyesiris-right"><path id="SvgjsPath6556" d="M119.8 85.3c2.7 0 4.9 2.2 4.9 4.9s-2.2 4.9-4.9 4.9-4.9-2.2-4.9-4.9 2.2-4.9 4.9-4.9z" fill="#4e60a3" stroke-width="none" opacity="1"></path><path id="SvgjsPath6557" d="M119.8 86.8c1.9 0 3.4 1.5 3.4 3.4s-1.5 3.4-3.4 3.4-3.4-1.5-3.4-3.4 1.5-3.4 3.4-3.4z" fill="#000000" stroke-width="none" opacity="1"></path><path id="SvgjsPath6558" d="m116.2 87.9 3.8 2.7-1.6-4.5c-.1-.3-2.1.8-2.2 1.8z" fill="#ffffff" stroke-width="none" opacity="1"></path></g></g></g><g id="svga-group-eyesfront-right"><path id="SvgjsPath5674" d="M119.8 76.7c-7.8 0-14.1 6.1-14.1 13.6s6.3 13.6 14.1 13.6 14.1-6.1 14.1-13.6-6.3-13.6-14.1-13.6zm-3.9 20.2c-3.9.7-5.3.6-5.2.2 0 0 4.5-9.9 6.9-11.1s7.3-1.6 10.4.1c3.2 1.7-8.2 10.1-12.1 10.8z" fill="#f3d4cf" stroke-width="none" opacity="1" stroke="none"></path><path id="SvgjsPath5677" d="M130.5 84.2c-1.3-.3-8-2.1-12.9 1.5-.2.1-.3.3-.5.4-.2.2-.5.4-.7.6-3.9 3.8-5.8 10.5-5.8 10.5s0-.1.1-.2c0 .1 0 .2.1.2s.1.1.2.1.2.1.4.1h.7c.5 0 1-.1 1.5-.1s1-.1 1.5-.2 1-.1 1.5-.2c.9-.2 1.7-.6 2.5-1 1.3-.6 5.2-2.4 7.3-4.4 1.4-1.2 5.4-6.9 4.1-7.3zm-14.1 12.5c-.9.3-1.9.4-2.8.6-.5.1-1 .1-1.4.2h-.7c-.1 0-.2 0-.3-.1s-.2-.1-.2-.2c.4-.8.8-1.7 1.2-2.5 1.8-3.2 4.9-8.1 7.8-9 1.4-.4 9.1-.7 8.3 2-.3.8-1.2 2-2.5 3.1-1.3 1.2-2.7 2.2-4.2 3.2-.8.5-1.6 1-2.5 1.5-1 .4-1.8.8-2.7 1.2z" fill="#000000" stroke-width="none" opacity="1" stroke="none"></path></g></g></g><g id="svga-group-facehighlight-single"></g><g id="svga-group-eyebrows-left-move" transform="matrix(1,0,0,1,0,0)"><g id="svga-group-eyebrows-left-rotate" transform="matrix(1,1.7453292519943295e-9,-1.7453292519943295e-9,1,1.2995914744351467e-7,-1.3809918186780124e-7)"><g id="svga-group-eyebrows-left"><path id="SvgjsPath6361" d="M65.06 82.83c.82-1.23 1.85-2.23 2.92-3.08 1.08-.84 2.23-1.51 3.42-2.02.3-.12.6-.23.9-.34.15-.05.3-.12.45-.17l.46-.13c.31-.08.61-.17.92-.25l.93-.17.46-.09c.15-.03.31-.03.47-.05l.94-.09c.31-.04.63-.03.94-.03h.94c.62.02 1.24.12 1.86.18.31.05.61.14.91.21.3.08.61.12.9.23l.88.3c.3.08.58.22.86.34.28.13.58.22.85.37l.83.43c2.18 1.23 4.19 3.12 5.68 5.79l.17-.08c-.28-1.67-.97-3.2-1.85-4.52-.88-1.32-1.98-2.43-3.19-3.27l-.93-.57c-.15-.1-.32-.16-.48-.24l-.49-.21c-.65-.31-1.33-.43-1.99-.6-.33-.08-.68-.09-1.01-.13-.34-.03-.67-.08-1.01-.1h-1.01c-.33.01-.67-.03-1 .01l-.99.08c-.33.03-.66.04-.99.11l-.99.17c-.16.03-.33.05-.49.09l-.49.13-.97.27c-.32.11-.64.24-.95.36l-.47.18c-.16.07-.31.15-.47.22-.31.15-.62.3-.92.45a17.41 17.41 0 0 0-3.41 2.51c-1.05 1-2.01 2.15-2.75 3.53l.16.18z" fill="#2a232b" stroke-width="none" opacity="1"></path></g></g></g><g id="svga-group-eyebrows-right-move" transform="matrix(1,0,0,1,0,0)"><g id="svga-group-eyebrows-right-rotate" transform="matrix(1,1.7453292519943295e-9,-1.7453292519943295e-9,1,1.365545756470965e-7,-2.1299837271726574e-7)"><g id="svga-group-eyebrows-right"><path id="SvgjsPath6362" d="M137.15 82.59c-.87-1.08-1.96-1.96-3.1-2.71a17.53 17.53 0 0 0-3.64-1.78c-.32-.11-.64-.2-.96-.3l-.48-.15-.49-.11c-.33-.07-.65-.15-.98-.22l-.99-.15-.49-.08c-.16-.03-.33-.03-.5-.05l-1-.08c-.33-.04-.67-.02-1-.03h-1c-.66.02-1.32.1-1.97.16-.33.04-.65.12-.97.18-.32.07-.65.11-.96.21l-.94.26c-.32.07-.61.19-.92.3-.3.11-.61.19-.91.33l-.89.38c-2.32 1.08-4.45 2.74-6.03 5.09l-.18-.07c.29-1.47 1.03-2.81 1.97-3.97.94-1.16 2.11-2.13 3.39-2.88l.99-.5c.16-.09.34-.14.51-.21l.52-.19c.69-.27 1.41-.38 2.12-.53.36-.07.72-.08 1.07-.12.36-.03.71-.07 1.07-.09h1.07c.35.01.71-.02 1.06.01l1.05.07c.35.03.7.04 1.05.1l1.05.15c.17.03.35.05.52.08l.52.12 1.03.24c.34.1.68.21 1.01.32l.5.16c.17.06.33.13.49.19.33.13.66.26.98.4 1.28.6 2.51 1.33 3.63 2.21 1.11.88 2.14 1.89 2.92 3.11l-.12.15z" fill="#2a232b" stroke-width="none" opacity="1"></path></g></g></g><g id="svga-group-nose-single-move" transform="matrix(1,0,0,1,0,0)"><g id="svga-group-nose-single"><path id="SvgjsPath6620" d="M109.52 109.12c-.37-.88-.94-1.63-1.59-2.29.5.77.95 1.58 1.22 2.42.13.42.21.86.14 1.25-.04.2-.1.36-.23.53-.12.17-.25.34-.41.47-.61.58-1.49.8-2.35.68-.43-.05-.87-.17-1.28-.35-.39-.14-.76-.35-1.13-.54.33-.49.63-1.01.89-1.55-.86.8-1.66 1.61-2.52 2.32-.43.35-.86.7-1.32.96-.45.27-.94.48-1.33.46-.1.01-.18-.02-.27-.03-.08-.05-.15-.05-.26-.14-.21-.13-.43-.31-.65-.48-.44-.34-.87-.72-1.31-1.08-.87-.74-1.75-1.48-2.69-2.17.44.7.95 1.34 1.47 1.97-.44.2-.89.36-1.34.46-.56.11-1.15.13-1.62-.09-.95-.47-1.51-1.61-1.35-2.58.04-.25.12-.44.26-.65.15-.23.32-.46.49-.69.35-.45.72-.9 1.11-1.33l.58-.65c.23-.25.4-.49.58-.74.36-.5.68-1.03.94-1.61.26-.57.42-1.23.52-1.81.1-.59.2-1.18.26-1.77.13-1.18.24-2.36.27-3.55.08-2.37.02-4.76-.45-7.08.05 2.36-.12 4.7-.35 7.03-.13 1.16-.26 2.33-.44 3.48-.09.58-.18 1.15-.28 1.72-.11.58-.23 1.07-.47 1.57-.22.5-.5.99-.82 1.45-.16.23-.33.47-.5.65-.2.23-.39.45-.58.68-.38.46-.74.94-1.09 1.43-.17.25-.35.5-.5.77-.18.29-.3.67-.32 1-.11 1.38.74 2.67 1.98 3.12.64.2 1.29.1 1.86-.1.47-.16.9-.4 1.31-.67.21.25.41.5.63.74.39.44.8.84 1.24 1.25.22.2.45.39.72.57.11.09.32.19.5.27.19.05.39.1.58.1.77 0 1.36-.33 1.88-.66.51-.36.96-.75 1.36-1.2.39-.42.74-.87 1.06-1.34.66.58 1.44 1.09 2.36 1.27.47.1.98.11 1.46 0 .48-.12.94-.36 1.31-.7.19-.17.34-.37.48-.57.15-.2.26-.48.28-.73.03-.54-.1-1.03-.29-1.47z" fill="#c5796d" stroke-width="none" opacity="1"></path></g></g><g id="svga-group-hair-front"><path id="SvgjsPath5629" d="M39.7 160.7c-.4-.9-.6-1.5-.6-1.5s.2.6.6 1.5zm40.4-10.1s-.7-3.8-5.2-4.6c-3.9-.8-6.9 1.7-7.7 2.6-1.5.2-4.9-1.9-11 4.8-7.3 7.9-3.1 18.8-3.1 18.8-8.5-2.2-12.1-8.5-13.4-11.3 1.5 3.8 5.6 13.8 9.2 15.5 4.4 2.1 12.3 7.8 12.7 13.8.3 6-5.2 8.3-5.2 8.3 11.8.3 16.4-4.9 17.8-7.1s2.9-6.8 2.3-11.5-1.3-17.1 1.7-24.3c1.1-3.2 1.9-5 1.9-5zM55.8 88.8l2 1.7s-.3-15.4 9.4-27.8 18-10.7 18-10.7S97 56.7 108 55c0 0 7.4 0 9.4 9 0 0 4-5.7-3.7-10.7 0 0 8.4-.3 13.4 2.3 5 2.7 9.4 9.7 12 18.4 2.7 8.7 2.3 18.1 2.3 18.1l2-2s3.7-13.7 1-25.4-7.3-18.7-7.3-18.7-1.3-4.3-5.7-7c0 0-3.7-8-10-10 0 0-.7-4-8-5.4 0 0-4.7-2.7-11-1.7 0 0-5-1.7-9.4 0 0 0-6-1.7-10 1.7 0 0-7.7 3.7-11.4 6.4s-4 9.7-4 9.7-1.4.9-2.1 1.9c-.7 1-1.4 3.7-1.4 3.7s-3.4 4.1-4.2 8.7c0 0-2.8 1-3.5 10.9 0 0-1 2.3-1.1 8.5 0 0-1.2 3.2-.8 7.3.4 3.9 1.3 8.1 1.3 8.1z" fill="#2a232b" stroke-width="none" opacity="1" stroke="none"></path><path id="SvgjsPath5630" d="M79.7 38.2c-.2-2.5.1-5.1.7-7.6.7-2.5 1.7-4.9 3.2-7.2-1.9 1.9-3.4 4.2-4.3 6.8-.9 2.6-1.3 5.3-1.1 8.1.2 2.7 1 5.4 2.3 7.8 1.3 2.4 3.1 4.5 5.2 6.1-1.8-2-3.2-4.2-4.2-6.6-1-2.3-1.7-4.9-1.8-7.4zm-6.2.2c.2-2.8 1.2-5.6 2.6-8.1 1.5-2.5 3.4-4.7 5.9-6.3-.6.2-1.1.5-1.6.8-3.2.6-6.2 2.4-8.6 4.8-2.4 2.5-4.1 5.8-4.8 9.2-.7 3.5-.3 7.1.8 10.4 1.2 3.3 3.3 6.3 6.1 8.2-2.4-2.4-4-5.5-5-8.6-.9-3.2-1.1-6.5-.5-9.8.6-3.2 2.1-6.2 4.2-8.8 1.9-2.3 4.4-4.2 7.2-5.3-1.9 1.2-3.6 2.8-4.8 4.7-1.7 2.5-2.8 5.5-3.1 8.6-.3 3.1.2 6.2 1.5 9 1.2 2.8 3.2 5.3 5.6 7-2.1-2.1-3.6-4.7-4.5-7.4-.8-2.7-1.3-5.6-1-8.4zm-8.9 32.9c-1.2-2-2.2-4.1-2.9-6.3-.7-2.2-1.1-4.4-1.1-6.7-.1-2.2.2-4.5.7-6.7.5-2.2 1.4-4.3 2.5-6.3 0 .1-.1.2-.1.3-.6 2.1-.7 4.3-.6 6.4.2 2.2.7 4.3 1.7 6.2.9 2 2.2 3.7 3.8 5.1-2.3-3.6-3.6-7.5-3.9-11.5-.2-2-.1-4 .2-6 .3-2 .9-4 1.7-5.9-1.3 1.5-2.2 3.4-2.7 5.3-1.6 1.7-2.8 3.8-3.6 6.1-.8 2.3-1.2 4.7-1.1 7.1.1 2.4.6 4.8 1.5 7s2.2 4.3 3.9 5.9zm-6.5 2c1 2 2.3 3.8 3.9 5.2-2.4-3.6-3.8-7.5-4.3-11.6-.3-2.1-.3-4.1-.1-6.2.2-2.1.7-4.1 1.4-6.2-1.2 1.8-2.1 3.8-2.5 6-.5 2.2-.5 4.4-.3 6.6.3 2.1.9 4.2 1.9 6.2zM57 81.4c.8 1.6 2 3 3.4 4-1-1.4-1.8-2.9-2.3-4.5-.6-1.6-1-3.2-1.2-4.8-.3-1.6-.4-3.3-.5-5-.1-1.7-.2-3.4-.4-5.2-.4 1.7-.6 3.4-.7 5.2-.1 1.7 0 3.5.2 5.2.1 1.8.7 3.5 1.5 5.1zm-1.3 5.3c.7 1.3 1.6 2.6 2.7 3.6-.6-1.4-1.2-2.7-1.6-4.1-.5-1.4-.8-2.8-1.1-4.2-.3-1.4-.5-2.8-.6-4.3-.1-1.4-.1-2.8-.1-4.3-.6 1.4-1 2.9-1.1 4.4-.1 1.5 0 3.1.3 4.6.3 1.4.8 2.9 1.5 4.3zm34.2-47.6c-.4-2.8-.4-5.7.2-8.5.5-2.8 1.5-5.6 2.9-8.2-1.9 2.3-3.3 5-4 7.9-.8 2.9-.9 6-.5 9 .5 3 1.5 5.9 3.2 8.4 1.6 2.5 3.7 4.8 6.2 6.3-2.1-2-3.9-4.4-5.2-6.9-1.4-2.4-2.3-5.2-2.8-8zm10.9-2.6c-.5-2.4-1.1-4.7-2-6.9-.8-2.2-1.8-4.4-3.1-6.5.7 2.3 1.4 4.6 2 6.8.6 2.3 1.2 4.6 1.6 6.9.5 2.3.9 4.6 1.2 7 .3 2.3.6 4.7.9 7.1.3-2.4.4-4.8.3-7.2-.1-2.5-.4-4.8-.9-7.2zm13 1.3c.7 2.6 1.1 5.3 1.1 8 0 1.3-.1 2.7-.4 4-.3 1.3-.9 2.5-2 3.5 1.3-.6 2.1-1.9 2.7-3.2.5-1.3.8-2.8.9-4.2.2-2.8-.2-5.7-.8-8.4-.7-2.7-1.8-5.4-3.3-7.8-1.5-2.4-3.4-4.5-5.6-6.2 1.8 2.1 3.3 4.4 4.6 6.8 1.2 2.3 2.1 4.9 2.8 7.5zm8.1-6.9c-.7-1.2-1.6-2.2-2.5-3.2-2.1-2-4.6-3.6-7.4-4.2 2.6 1.2 4.8 3 6.6 5 1.8 2.1 3.1 4.5 3.9 7.1.8 2.6 1.1 5.3.9 8.1-.2 2.7-.9 5.5-2.1 8 1.7-2.2 2.8-5 3.3-7.9.5-2.9.3-5.8-.6-8.7-.3-.9-.7-1.8-1.1-2.6.8 1 1.6 2.1 2.3 3.2 1.3 2 2.4 4.2 3.2 6.4.8 2.2 1.5 4.6 1.5 6.9 0 1.2-.2 2.3-.8 3.4-.5 1.1-1.3 2-2.4 2.6 1.2-.3 2.3-1.2 3-2.2.7-1.1 1.2-2.4 1.3-3.7.3-2.6-.4-5.1-1.2-7.5-1.6-4.2-4.3-8-7.9-10.7zm12.3 11.5c-1-1.8-2.4-3.5-4-4.7 1.2 1.6 2.2 3.4 3 5.2.7 1.8 1.2 3.7 1.4 5.7.2 1.9 0 3.9-.4 5.8s-1.1 3.8-2.1 5.6c1.5-1.5 2.5-3.3 3.2-5.3.7-2 .9-4.1.8-6.3-.3-2.1-.9-4.1-1.9-6zm7.9 20.6c.2-1.7.1-3.3-.3-5-.3-1.4-.9-2.8-1.6-4v-.4c-.2-2-.7-4-1.6-5.8-.9-1.8-2.2-3.4-3.7-4.6 1.1 1.6 2 3.3 2.6 5.1.6 1.8 1.1 3.6 1.2 5.5.1 1.9 0 3.7-.4 5.6-.4 1.8-1.1 3.7-1.9 5.4 1.4-1.4 2.4-3.2 3-5.1.5-1.5.8-3 .8-4.6.5 2.6.7 5.2.4 7.8-.3 3.1-1.3 6-2.8 8.9 1.2-1.1 2.2-2.4 2.9-3.9.7-1.6 1.2-3.3 1.4-4.9zm2.5 7.5c.3-1.5.5-3.1.3-4.6-.1-1.5-.5-3.1-1.2-4.4.1 1.5.1 3 0 4.5-.1 1.4-.3 2.9-.6 4.3s-.8 2.8-1.3 4.1c-.6 1.3-1.2 2.7-2 4 1.2-.9 2.2-2.1 3-3.4.8-1.5 1.4-3 1.8-4.5zm.5 2.4c-.4 1-.7 2-1 2.9-.3 1-.6 1.9-1 2.8-.4.9-.7 1.9-1.1 2.8-.4.9-.8 1.9-1.2 2.9.9-.6 1.6-1.4 2.2-2.3.6-.9 1.1-1.8 1.5-2.8.4-1 .6-2.1.7-3.1.1-1.1.1-2.2-.1-3.2zm-1.2 9.3-.8 2.9-.9 2.9c-.3 1-.6 1.9-.9 3 .8-.7 1.4-1.6 1.9-2.5.5-.9.9-1.9 1.2-2.9s.5-2.1.6-3.1c.1-1.1 0-2.1-.2-3.2-.4 1-.6 2-.9 2.9zM79 153.1c-2.1 4.1-3.4 8.6-3.8 13.1-.2 2.3-.3 4.6-.1 6.9.2 2.3.5 4.6.7 6.8.2 2.2.2 4.4-.4 6.5-.5 2.1-1.6 4-3 5.7-2.8 3.4-7 5.7-11.6 5.9 2.3.2 4.6-.2 6.8-1.1 2.1-.9 4.1-2.3 5.7-4s2.8-3.8 3.5-6.1c.7-2.3.7-4.7.5-7-.2-2.3-.6-4.6-.8-6.8-.2-2.2-.2-4.5-.2-6.7.2-4.5 1.1-8.9 2.7-13.2zm-17.2 37.6c0-1.3-.3-2.5-.7-3.7-.9-2.4-2.5-4.4-4.3-6.1-1.8-1.7-3.9-3-5.9-4.4-1-.7-2-1.3-2.9-2.1-.9-.7-1.8-1.5-2.5-2.4-1.5-1.8-2.8-3.8-3.9-5.9-1-2.1-1.9-4.4-2.5-6.7-.6-2.3-.9-4.7-.9-7.1-.6 4.8.4 9.8 2.4 14.3 1 2.2 2.2 4.4 3.8 6.3.8.9 1.7 1.8 2.7 2.6 1 .8 2 1.4 3 2.1 2 1.4 4 2.7 5.8 4.2 1.8 1.5 3.3 3.4 4.2 5.5.9 2.1 1.2 4.5.3 6.6-.8 2.1-2.7 4-5.1 4.4 1.2 0 2.4-.4 3.4-1.2 1-.7 1.8-1.8 2.4-2.9.4-.9.7-2.2.7-3.5zm6.4-2.2c.7-2.1.9-4.4.2-6.5-.7-2.2-2.1-3.9-3.5-5.4-1.4-1.5-2.8-3-3.7-4.8-1-1.7-1.5-3.7-1.7-5.7-.4-4 .6-8.2 3.1-11.5-1.5 1.5-2.6 3.3-3.3 5.3-.7 2-1 4.2-.9 6.3.1 2.1.7 4.3 1.6 6.2 1 2 2.5 3.6 3.8 5.1 1.4 1.5 2.7 3.1 3.3 4.9.6 1.8.5 3.9 0 5.7-.5 1.9-1.6 3.7-2.9 5.2-1.3 1.6-3 2.8-4.7 4 1.9-.9 3.7-2.1 5.2-3.5s2.8-3.2 3.5-5.3zM123 13.6c.8 1.4 1.4 3 1.5 4.7.1 1.6-.2 3.3-.8 4.8-.6 1.5-1.6 3-2.8 4.3 1.6-.8 3-2.1 3.9-3.8.9-1.6 1.3-3.5 1.2-5.4-.2-1.9-.9-3.7-2-5.2s-2.7-2.6-4.4-3.2c1.4 1.1 2.5 2.4 3.4 3.8zm-10.1 39.8c1.6.7 2.7 1.8 3.4 3.2.7 1.4 1.1 2.9 1.2 4.4 0 .5 0 .9-.1 1.4-.3-1-.7-2-1.3-2.9-1-1.4-2.4-2.6-3.9-3.4-1.5-.8-3.1-1.4-4.8-1.6 1.4.8 2.8 1.6 4.1 2.6 1.3 1 2.4 2 3.3 3.3.9 1.2 1.4 2.7 1.7 4.2.1.6.1 1.1.1 1.7l-1.2 4.2c1-1.4 1.8-2.8 2.4-4.4.6-1.6 1-3.3 1-5.1-.1-1.8-.6-3.6-1.7-5-.9-1.5-2.5-2.6-4.2-2.6zm-39 101c-.2 2.5-.8 5.1-1.6 7.5-.4 1.2-.9 2.4-1.6 3.6-.6 1.2-1.3 2.3-2 3.4-.8 1.1-1.7 2.3-1.9 3.7-.1.7 0 1.4.3 2 .3.6.9 1.2 1.7 1.4-1.3-.7-1.6-2.2-1.3-3.3.4-1.2 1.3-2.2 2.2-3.3 1.7-2.2 3.1-4.6 4-7.1.5-1.3.8-2.6 1-3.9.2-1.3.4-2.6.3-3.9 0-2.6-.5-5.2-1.4-7.7.4 2.5.5 5.1.3 7.6z" fill="#0c080c" stroke-width="none" opacity="1" stroke="none"></path></g><g id="svga-group-glasses-single-move" transform="matrix(1,0,0,1,0,0)"><g id="svga-group-glasses-single"></g></g></g></g></g><rect id="svga-credit-rect" width="200" height="15" x="0" y="185" fill="#ecf0f1" opacity="0.5" style="display: none;"></rect><text id="svga-credit-text" font-family="Avenir Next, Roboto, Helvetica, Arial, sans-serif" font-size="10px" text-anchor="start" font-weight="400" size="10px" anchor="start" weight="400" fill="#333333" x="33.43855285644531" y="182.3670916557312" style="display: none;"><tspan id="SvgjsTspan5316" dy="13" x="33.43855285644531">Created on AvatarMaker.com</tspan></text></g><defs id="SvgjsDefs5268"><linearGradient id="SvgjsLinearGradient6582" x1="100.0291" y1="78.4287" x2="100.0291" y2="116.3678" gradientUnits="userSpaceOnUse" class="svga-on-canvas-nose-gradient-single-0-null"><stop id="SvgjsStop6583" stop-opacity="0" stop-color="#fff4f3" offset="0" ></stop><stop id="SvgjsStop6584" stop-opacity="0.9727" stop-color="#f3d4cf" offset="0.7584" ></stop><stop id="SvgjsStop6585" stop-opacity="0.9769" stop-color="#ebc3bd" offset="0.7953" ></stop><stop id="SvgjsStop6586" stop-opacity="0.9852" stop-color="#e4b3ab" offset="0.8691" ></stop><stop id="SvgjsStop6587" stop-opacity="0.9968" stop-color="#d4958a" offset="0.972" ></stop><stop id="SvgjsStop6588" stop-opacity="1" stop-color="#c5796d" offset="1" ></stop></linearGradient></defs></svg>